<svg xmlns="http://www.w3.org/2000/svg" width="1800" height="1080" viewBox="0 0 1800 1080">
<defs><marker id="arrow" markerWidth="10" markerHeight="10" refX="8" refY="3" orient="auto"><path d="M0,0 L0,6 L9,3 z" fill="#475569"/></marker></defs>
<rect width="1800" height="1080" fill="#f8fafc"/><text x="60" y="65" font-family="Arial" font-size="38" font-weight="700" fill="#0f172a">EcoTrack - Big Picture Event Storming</text>
<text x="60" y="100" font-family="Arial" font-size="20" fill="#475569">End-to-end business flow and preliminary bounded contexts</text>
<rect x="40" y="130" width="1720" height="150" rx="18" fill="#ecfeff"/><text x="65" y="170" font-family="Arial" font-size="23" font-weight="700" fill="#155e75">Organization Management + IAM</text>
<rect x="80" y="195" width="170" height="55" rx="10" fill="#fde68a"/><text x="115" y="230" font-family="Arial" font-size="18" fill="#1f2937">Administrator</text><rect x="320" y="195" width="230" height="55" rx="10" fill="#bfdbfe"/><text x="350" y="230" font-family="Arial" font-size="18" fill="#1f2937">Register organization</text><rect x="620" y="195" width="250" height="55" rx="10" fill="#fdba74"/><text x="645" y="230" font-family="Arial" font-size="18" fill="#1f2937">Organization Registered</text><rect x="940" y="195" width="210" height="55" rx="10" fill="#bfdbfe"/><text x="970" y="230" font-family="Arial" font-size="18" fill="#1f2937">Register facility</text><rect x="1220" y="195" width="210" height="55" rx="10" fill="#fdba74"/><text x="1245" y="230" font-family="Arial" font-size="18" fill="#1f2937">Facility Registered</text><rect x="1490" y="195" width="200" height="55" rx="10" fill="#fdba74"/><text x="1525" y="230" font-family="Arial" font-size="18" fill="#1f2937">User Invited</text>
<path d="M250 222 H315 M550 222 H615 M870 222 H935 M1150 222 H1215 M1430 222 H1485" stroke="#475569" stroke-width="3" marker-end="url(#arrow)"/>
<rect x="40" y="310" width="1720" height="210" rx="18" fill="#fff7ed"/><text x="65" y="350" font-family="Arial" font-size="23" font-weight="700" fill="#9a3412">Emissions Management + Data Integration</text>
<rect x="80" y="390" width="220" height="55" rx="10" fill="#fde68a"/><text x="105" y="425" font-family="Arial" font-size="18" fill="#1f2937">Environmental analyst</text><rect x="365" y="390" width="250" height="55" rx="10" fill="#bfdbfe"/><text x="390" y="425" font-family="Arial" font-size="18" fill="#1f2937">Register emission source</text><rect x="680" y="390" width="270" height="55" rx="10" fill="#fdba74"/><text x="705" y="425" font-family="Arial" font-size="18" fill="#1f2937">Emission Source Registered</text><rect x="1015" y="390" width="240" height="55" rx="10" fill="#bfdbfe"/><text x="1045" y="425" font-family="Arial" font-size="18" fill="#1f2937">Record activity data</text><rect x="1320" y="390" width="260" height="55" rx="10" fill="#fdba74"/><text x="1345" y="425" font-family="Arial" font-size="18" fill="#1f2937">Activity Data Recorded</text>
<path d="M300 417 H360 M615 417 H675 M950 417 H1010 M1255 417 H1315" stroke="#475569" stroke-width="3" marker-end="url(#arrow)"/>
<rect x="1030" y="465" width="220" height="38" rx="8" fill="#ddd6fe"/><text x="1060" y="490" font-family="Arial" font-size="15" fill="#4c1d95">CSV/API data policy</text>
<rect x="40" y="550" width="1720" height="200" rx="18" fill="#eef2ff"/><text x="65" y="590" font-family="Arial" font-size="23" font-weight="700" fill="#3730a3">Carbon Footprint Calculation</text>
<rect x="100" y="635" width="240" height="55" rx="10" fill="#bfdbfe"/><text x="125" y="670" font-family="Arial" font-size="18" fill="#1f2937">Select emission factor</text><rect x="405" y="635" width="250" height="55" rx="10" fill="#fdba74"/><text x="430" y="670" font-family="Arial" font-size="18" fill="#1f2937">Emission Factor Selected</text><rect x="720" y="635" width="240" height="55" rx="10" fill="#bfdbfe"/><text x="745" y="670" font-family="Arial" font-size="18" fill="#1f2937">Calculate footprint</text><rect x="1025" y="635" width="280" height="55" rx="10" fill="#fdba74"/><text x="1050" y="670" font-family="Arial" font-size="18" fill="#1f2937">Carbon Footprint Calculated</text><rect x="1370" y="635" width="280" height="55" rx="10" fill="#bbf7d0"/><text x="1400" y="670" font-family="Arial" font-size="18" fill="#1f2937">Results by scope and period</text>
<path d="M340 662 H400 M655 662 H715 M960 662 H1020 M1305 662 H1365" stroke="#475569" stroke-width="3" marker-end="url(#arrow)"/>
<rect x="40" y="780" width="1720" height="230" rx="18" fill="#f0fdf4"/><text x="65" y="820" font-family="Arial" font-size="23" font-weight="700" fill="#166534">Goals, Analytics and Reports</text>
<rect x="80" y="865" width="190" height="55" rx="10" fill="#fde68a"/><text x="115" y="900" font-family="Arial" font-size="18" fill="#1f2937">Sustainability lead</text><rect x="330" y="865" width="200" height="55" rx="10" fill="#bfdbfe"/><text x="365" y="900" font-family="Arial" font-size="18" fill="#1f2937">Create goal</text><rect x="590" y="865" width="220" height="55" rx="10" fill="#fdba74"/><text x="620" y="900" font-family="Arial" font-size="18" fill="#1f2937">Reduction Goal Created</text><rect x="870" y="865" width="210" height="55" rx="10" fill="#bfdbfe"/><text x="900" y="900" font-family="Arial" font-size="18" fill="#1f2937">Review progress</text><rect x="1140" y="865" width="200" height="55" rx="10" fill="#fdba74"/><text x="1175" y="900" font-family="Arial" font-size="18" fill="#1f2937">Progress Reviewed</text><rect x="1400" y="865" width="260" height="55" rx="10" fill="#bbf7d0"/><text x="1430" y="900" font-family="Arial" font-size="18" fill="#1f2937">Dashboard and history</text>
<path d="M270 892 H325 M530 892 H585 M810 892 H865 M1080 892 H1135 M1340 892 H1395" stroke="#475569" stroke-width="3" marker-end="url(#arrow)"/>
<rect x="870" y="945" width="210" height="38" rx="8" fill="#ddd6fe"/><text x="895" y="970" font-family="Arial" font-size="15" fill="#4c1d95">Reporting policy</text><rect x="1140" y="945" width="250" height="38" rx="8" fill="#fdba74"/><text x="1165" y="970" font-family="Arial" font-size="15" fill="#1f2937">Report Generated</text>
<text x="60" y="1050" font-family="Arial" font-size="16" fill="#475569">Legend: Actor = yellow | Command = blue | Domain Event = orange | Policy = purple | Read Model = green</text>
</svg>